<?xml version="1.0" encoding="UTF-8" standalone="no"?>
<!DOCTYPE svg PUBLIC "-//W3C//DTD SVG 1.1//EN" "http://www.w3.org/Graphics/SVG/1.1/DTD/svg11.dtd">
<!-- Generated by Microsoft Visio, SVG Export case.svg Page-1 -->
<svg xmlns="http://www.w3.org/2000/svg" xmlns:xlink="http://www.w3.org/1999/xlink" xmlns:ev="http://www.w3.org/2001/xml-events"
		xmlns:v="http://schemas.microsoft.com/visio/2003/SVGExtensions/" width="6.99152in" height="2.68995in"
		viewBox="0 0 503.39 193.676" xml:space="preserve" color-interpolation-filters="sRGB" class="st4">
	<v:documentProperties v:langID="1033" v:viewMarkup="false"/>

	<style type="text/css">
	<![CDATA[
		.st1 {fill:none;stroke:none;stroke-linecap:round;stroke-linejoin:round;stroke-width:0.75}
		.st2 {fill:#000000;font-family:Calibri;font-size:0.666664em}
		.st3 {fill:none;stroke:#ff0000;stroke-linecap:round;stroke-linejoin:round;stroke-width:0.24}
		.st4 {fill:none;fill-rule:evenodd;font-size:12px;overflow:visible;stroke-linecap:square;stroke-miterlimit:3}
	]]>
	</style>

	<g v:mID="0" v:index="1" v:groupContext="foregroundPage">
		<title>Page-1</title>
		<v:pageProperties v:drawingScale="0.0393701" v:pageScale="0.0393701" v:drawingUnits="24" v:shadowOffsetX="8.50394"
				v:shadowOffsetY="-8.50394"/>
		<g id="shape31-1" v:mID="31" v:groupContext="shape" transform="translate(1.53732,-173.301)">
			<title>Sheet.31</title>
			<desc>plexi 2mm</desc>
			<v:textBlock v:margins="rect(4,4,4,4)" v:tabSpace="42.5197"/>
			<v:textRect cx="30.7868" cy="183.676" width="61.58" height="20"/>
			<rect x="0" y="173.676" width="61.5737" height="20" class="st1"/>
			<text x="13.8" y="186.08" class="st2" v:langID="1033"><v:paragraph v:horizAlign="1"/><v:tabList/>plexi 2mm</text>		</g>
		<g id="group34-4" transform="translate(8.62394,-8.62394)" v:mID="34" v:groupContext="group">
			<title>Sheet.34</title>
			<g id="shape32-5" v:mID="32" v:groupContext="shape">
				<title>Circle - radius.32</title>
				<v:userDefs>
					<v:ud v:nameU="visVersion" v:val="VT0(15):26"/>
				</v:userDefs>
				<path d="M-8.5 193.68 A8.50394 8.50394 0 0 1 8.5 193.68 A8.50394 8.50394 0 0 1 -8.5 193.68 Z" class="st3"/>
			</g>
			<g id="shape33-7" v:mID="33" v:groupContext="shape">
				<title>Circle - radius.33</title>
				<v:userDefs>
					<v:ud v:nameU="visVersion" v:val="VT0(15):26"/>
				</v:userDefs>
				<path d="M-3.54 193.68 A3.54331 3.54331 0 0 1 3.54 193.68 A3.54331 3.54331 0 0 1 -3.54 193.68 Z" class="st3"/>
			</g>
		</g>
		<g id="group35-9" transform="translate(1.53732,-21.3798)" v:mID="35" v:groupContext="group">
			<title>Sheet.35</title>
			<g id="shape1-10" v:mID="1" v:groupContext="shape">
				<title>Rectangle</title>
				<v:userDefs>
					<v:ud v:nameU="visVersion" v:val="VT0(15):26"/>
				</v:userDefs>
				<rect x="0" y="51.9438" width="240.945" height="141.732" class="st3"/>
			</g>
			<g id="shape6-12" v:mID="6" v:groupContext="shape" transform="translate(51.0236,-133.228)">
				<title>Circle - radius</title>
				<v:userDefs>
					<v:ud v:nameU="visVersion" v:val="VT0(15):26"/>
				</v:userDefs>
				<path d="M-3.54 193.68 A3.54331 3.54331 0 0 1 3.54 193.68 A3.54331 3.54331 0 0 1 -3.54 193.68 Z" class="st3"/>
			</g>
			<g id="shape7-14" v:mID="7" v:groupContext="shape" transform="translate(51.0236,-8.50389)">
				<title>Circle - radius.7</title>
				<v:userDefs>
					<v:ud v:nameU="visVersion" v:val="VT0(15):26"/>
				</v:userDefs>
				<path d="M-3.54 193.68 A3.54331 3.54331 0 0 1 3.54 193.68 A3.54331 3.54331 0 0 1 -3.54 193.68 Z" class="st3"/>
			</g>
			<g id="shape8-16" v:mID="8" v:groupContext="shape" transform="translate(232.441,-8.50393)">
				<title>Circle - radius.8</title>
				<v:userDefs>
					<v:ud v:nameU="visVersion" v:val="VT0(15):26"/>
				</v:userDefs>
				<path d="M-3.54 193.68 A3.54331 3.54331 0 0 1 3.54 193.68 A3.54331 3.54331 0 0 1 -3.54 193.68 Z" class="st3"/>
			</g>
			<g id="shape9-18" v:mID="9" v:groupContext="shape" transform="translate(232.441,-133.228)">
				<title>Circle - radius.9</title>
				<v:userDefs>
					<v:ud v:nameU="visVersion" v:val="VT0(15):26"/>
				</v:userDefs>
				<path d="M-3.54 193.68 A3.54331 3.54331 0 0 1 3.54 193.68 A3.54331 3.54331 0 0 1 -3.54 193.68 Z" class="st3"/>
			</g>
			<g id="shape12-20" v:mID="12" v:groupContext="shape" transform="translate(221.102,-76.5354)">
				<title>Circle - radius.12</title>
				<v:userDefs>
					<v:ud v:nameU="visVersion" v:val="VT0(15):26"/>
				</v:userDefs>
				<path d="M-9.92 193.68 A9.92126 9.92126 0 0 1 9.92 193.68 A9.92126 9.92126 0 0 1 -9.92 193.68 Z" class="st3"/>
			</g>
			<g id="shape14-22" v:mID="14" v:groupContext="shape" transform="translate(9.92126,-133.228)">
				<title>Circle - radius.14</title>
				<v:userDefs>
					<v:ud v:nameU="visVersion" v:val="VT0(15):26"/>
				</v:userDefs>
				<path d="M-4.25 193.68 A4.25197 4.25197 0 1 1 4.25 193.68 A4.25197 4.25197 0 1 1 -4.25 193.68 Z" class="st3"/>
			</g>
			<g id="shape15-24" v:mID="15" v:groupContext="shape" transform="translate(9.92126,-119.055)">
				<title>Circle - radius.15</title>
				<v:userDefs>
					<v:ud v:nameU="visVersion" v:val="VT0(15):26"/>
				</v:userDefs>
				<path d="M-4.25 193.68 A4.25197 4.25197 0 1 1 4.25 193.68 A4.25197 4.25197 0 1 1 -4.25 193.68 Z" class="st3"/>
			</g>
			<g id="shape16-26" v:mID="16" v:groupContext="shape" transform="translate(9.92126,-104.882)">
				<title>Circle - radius.16</title>
				<v:userDefs>
					<v:ud v:nameU="visVersion" v:val="VT0(15):26"/>
				</v:userDefs>
				<path d="M-4.25 193.68 A4.25197 4.25197 0 1 1 4.25 193.68 A4.25197 4.25197 0 1 1 -4.25 193.68 Z" class="st3"/>
			</g>
			<g id="shape18-28" v:mID="18" v:groupContext="shape" transform="translate(9.92125,-90.7087)">
				<title>Circle - radius.18</title>
				<v:userDefs>
					<v:ud v:nameU="visVersion" v:val="VT0(15):26"/>
				</v:userDefs>
				<path d="M-4.25 193.68 A4.25197 4.25197 0 1 1 4.25 193.68 A4.25197 4.25197 0 1 1 -4.25 193.68 Z" class="st3"/>
			</g>
			<g id="shape19-30" v:mID="19" v:groupContext="shape" transform="translate(9.92126,-72.2834)">
				<title>Circle - radius.19</title>
				<v:userDefs>
					<v:ud v:nameU="visVersion" v:val="VT0(15):26"/>
				</v:userDefs>
				<path d="M-4.25 193.68 A4.25197 4.25197 0 1 1 4.25 193.68 A4.25197 4.25197 0 1 1 -4.25 193.68 Z" class="st3"/>
			</g>
			<g id="shape21-32" v:mID="21" v:groupContext="shape" transform="translate(9.92126,-58.1102)">
				<title>Circle - radius.21</title>
				<v:userDefs>
					<v:ud v:nameU="visVersion" v:val="VT0(15):26"/>
				</v:userDefs>
				<path d="M-4.25 193.68 A4.25197 4.25197 0 1 1 4.25 193.68 A4.25197 4.25197 0 1 1 -4.25 193.68 Z" class="st3"/>
			</g>
			<g id="shape22-34" v:mID="22" v:groupContext="shape" transform="translate(9.92126,-22.6771)">
				<title>Circle - radius.22</title>
				<v:userDefs>
					<v:ud v:nameU="visVersion" v:val="VT0(15):26"/>
				</v:userDefs>
				<path d="M-4.25 193.68 A4.25197 4.25197 0 1 1 4.25 193.68 A4.25197 4.25197 0 1 1 -4.25 193.68 Z" class="st3"/>
			</g>
			<g id="shape23-36" v:mID="23" v:groupContext="shape" transform="translate(9.92125,-8.50393)">
				<title>Circle - radius.23</title>
				<v:userDefs>
					<v:ud v:nameU="visVersion" v:val="VT0(15):26"/>
				</v:userDefs>
				<path d="M-4.25 193.68 A4.25197 4.25197 0 1 1 4.25 193.68 A4.25197 4.25197 0 1 1 -4.25 193.68 Z" class="st3"/>
			</g>
		</g>
		<g id="group36-38" transform="translate(262.325,-21.3798)" v:mID="36" v:groupContext="group">
			<title>Sheet.36</title>
			<g id="shape24-39" v:mID="24" v:groupContext="shape">
				<title>Rectangle.24</title>
				<v:userDefs>
					<v:ud v:nameU="visVersion" v:val="VT0(15):26"/>
				</v:userDefs>
				<rect x="0" y="51.9438" width="240.945" height="141.732" class="st3"/>
			</g>
			<g id="shape25-41" v:mID="25" v:groupContext="shape" transform="translate(51.0236,-133.228)">
				<title>Circle - radius.25</title>
				<v:userDefs>
					<v:ud v:nameU="visVersion" v:val="VT0(15):26"/>
				</v:userDefs>
				<path d="M-3.54 193.68 A3.54331 3.54331 0 0 1 3.54 193.68 A3.54331 3.54331 0 0 1 -3.54 193.68 Z" class="st3"/>
			</g>
			<g id="shape26-43" v:mID="26" v:groupContext="shape" transform="translate(51.0236,-8.50389)">
				<title>Circle - radius.26</title>
				<v:userDefs>
					<v:ud v:nameU="visVersion" v:val="VT0(15):26"/>
				</v:userDefs>
				<path d="M-3.54 193.68 A3.54331 3.54331 0 0 1 3.54 193.68 A3.54331 3.54331 0 0 1 -3.54 193.68 Z" class="st3"/>
			</g>
			<g id="shape27-45" v:mID="27" v:groupContext="shape" transform="translate(232.441,-8.50394)">
				<title>Circle - radius.27</title>
				<v:userDefs>
					<v:ud v:nameU="visVersion" v:val="VT0(15):26"/>
				</v:userDefs>
				<path d="M-3.54 193.68 A3.54331 3.54331 0 0 1 3.54 193.68 A3.54331 3.54331 0 0 1 -3.54 193.68 Z" class="st3"/>
			</g>
			<g id="shape28-47" v:mID="28" v:groupContext="shape" transform="translate(232.441,-133.228)">
				<title>Circle - radius.28</title>
				<v:userDefs>
					<v:ud v:nameU="visVersion" v:val="VT0(15):26"/>
				</v:userDefs>
				<path d="M-3.54 193.68 A3.54331 3.54331 0 0 1 3.54 193.68 A3.54331 3.54331 0 0 1 -3.54 193.68 Z" class="st3"/>
			</g>
		</g>
		<g id="group37-49" transform="translate(29.8838,-8.62394)" v:mID="37" v:groupContext="group">
			<title>Sheet.37</title>
			<g id="shape38-50" v:mID="38" v:groupContext="shape">
				<title>Circle - radius.32</title>
				<v:userDefs>
					<v:ud v:nameU="visVersion" v:val="VT0(15):26"/>
				</v:userDefs>
				<path d="M-8.5 193.68 A8.50394 8.50394 0 0 1 8.5 193.68 A8.50394 8.50394 0 0 1 -8.5 193.68 Z" class="st3"/>
			</g>
			<g id="shape39-52" v:mID="39" v:groupContext="shape">
				<title>Circle - radius.33</title>
				<v:userDefs>
					<v:ud v:nameU="visVersion" v:val="VT0(15):26"/>
				</v:userDefs>
				<path d="M-3.54 193.68 A3.54331 3.54331 0 0 1 3.54 193.68 A3.54331 3.54331 0 0 1 -3.54 193.68 Z" class="st3"/>
			</g>
		</g>
		<g id="group68-54" transform="translate(51.1436,-8.62394)" v:mID="68" v:groupContext="group">
			<title>Sheet.68</title>
			<g id="shape69-55" v:mID="69" v:groupContext="shape">
				<title>Circle - radius.32</title>
				<v:userDefs>
					<v:ud v:nameU="visVersion" v:val="VT0(15):26"/>
				</v:userDefs>
				<path d="M-8.5 193.68 A8.50394 8.50394 0 0 1 8.5 193.68 A8.50394 8.50394 0 0 1 -8.5 193.68 Z" class="st3"/>
			</g>
			<g id="shape70-57" v:mID="70" v:groupContext="shape">
				<title>Circle - radius.33</title>
				<v:userDefs>
					<v:ud v:nameU="visVersion" v:val="VT0(15):26"/>
				</v:userDefs>
				<path d="M-3.54 193.68 A3.54331 3.54331 0 0 1 3.54 193.68 A3.54331 3.54331 0 0 1 -3.54 193.68 Z" class="st3"/>
			</g>
		</g>
		<g id="group71-59" transform="translate(72.4035,-8.62394)" v:mID="71" v:groupContext="group">
			<title>Sheet.71</title>
			<g id="shape72-60" v:mID="72" v:groupContext="shape">
				<title>Circle - radius.32</title>
				<v:userDefs>
					<v:ud v:nameU="visVersion" v:val="VT0(15):26"/>
				</v:userDefs>
				<path d="M-8.5 193.68 A8.50394 8.50394 0 0 1 8.5 193.68 A8.50394 8.50394 0 0 1 -8.5 193.68 Z" class="st3"/>
			</g>
			<g id="shape73-62" v:mID="73" v:groupContext="shape">
				<title>Circle - radius.33</title>
				<v:userDefs>
					<v:ud v:nameU="visVersion" v:val="VT0(15):26"/>
				</v:userDefs>
				<path d="M-3.54 193.68 A3.54331 3.54331 0 0 1 3.54 193.68 A3.54331 3.54331 0 0 1 -3.54 193.68 Z" class="st3"/>
			</g>
		</g>
	</g>
</svg>
